<svg xmlns="http://www.w3.org/2000/svg" width="41.582" height="41.582" viewBox="0 0 41.582 41.582"><path d="M37.82,0H3.761A3.761,3.761,0,0,0,0,3.761V37.82a3.761,3.761,0,0,0,3.761,3.762H37.82a3.761,3.761,0,0,0,3.762-3.762V3.761A3.761,3.761,0,0,0,37.82,0ZM12.867,35.9A1.1,1.1,0,0,1,11.773,37H7.113A1.1,1.1,0,0,1,6.018,35.9V16.372a1.1,1.1,0,0,1,1.095-1.095h4.66a1.1,1.1,0,0,1,1.095,1.095ZM9.443,13.436a4.427,4.427,0,1,1,4.427-4.427A4.427,4.427,0,0,1,9.443,13.436ZM37.218,35.993A1.007,1.007,0,0,1,36.211,37h-5A1.007,1.007,0,0,1,30.2,35.993V26.831c0-1.367.4-5.989-3.572-5.989-3.082,0-3.707,3.164-3.832,4.584V35.993A1.006,1.006,0,0,1,21.795,37H16.959a1.007,1.007,0,0,1-1.006-1.006V16.284a1.007,1.007,0,0,1,1.006-1.006h4.836A1.007,1.007,0,0,1,22.8,16.284v1.7c1.143-1.715,2.841-3.038,6.456-3.038,8.006,0,7.961,7.48,7.961,11.59v9.453Z"/></svg>