<svg xmlns="http://www.w3.org/2000/svg" xmlns:xlink="http://www.w3.org/1999/xlink" width="41.192" height="36.615" viewBox="0 0 41.192 36.615"><defs><clipPath id="a"><rect width="41.192" height="36.615" transform="translate(0 0)" fill="#fff"/></clipPath></defs><g clip-path="url(#a)"><g transform="translate(0.645 0.665)"><path d="M39.215,11.223c.025.38.025.76.025,1.143,0,11.682-8.631,25.154-24.414,25.154v-.007A23.773,23.773,0,0,1,1.674,33.55a16.945,16.945,0,0,0,2.042.128,16.91,16.91,0,0,0,10.657-3.792,8.627,8.627,0,0,1-8.016-6.139,8.309,8.309,0,0,0,3.874-.152,8.78,8.78,0,0,1-6.883-8.665v-.112a8.336,8.336,0,0,0,3.894,1.106,9.015,9.015,0,0,1-2.656-11.8A24.121,24.121,0,0,0,22.27,13.355a9.018,9.018,0,0,1,2.482-8.447,8.413,8.413,0,0,1,12.14.383,16.914,16.914,0,0,0,5.449-2.146,8.832,8.832,0,0,1-3.772,4.889A16.675,16.675,0,0,0,43.5,6.643,17.735,17.735,0,0,1,39.215,11.223Z" transform="translate(-1.674 -2.506)"/></g></g></svg>